<svg width="128" height="128" viewBox="0 0 128 128" fill="none" xmlns="http://www.w3.org/2000/svg">
<circle cx="64" cy="64" r="64" fill="black"/>
<path d="M53.848 75.12C54.256 73.416 54.844 71.508 55.612 69.396C56.38 67.284 57.232 65.088 58.168 62.808H56.188C55.996 62.808 55.9 62.736 55.9 62.592C55.9 62.448 56.008 62.256 56.224 62.016C56.44 61.752 56.692 61.524 56.98 61.332C57.268 61.14 57.508 61.044 57.7 61.044H58.924C59.692 59.196 60.46 57.432 61.228 55.752C61.996 54.072 62.8 52.608 63.64 51.36C62.368 51.528 61.06 51.792 59.716 52.152C58.372 52.488 57.172 52.92 56.116 53.448C55.06 53.952 54.316 54.564 53.884 55.284C53.86 55.356 53.812 55.392 53.74 55.392C53.692 55.392 53.644 55.344 53.596 55.248C53.572 55.152 53.572 55.044 53.596 54.924C53.836 54.3 54.136 53.7 54.496 53.124C54.856 52.548 55.204 52.092 55.54 51.756C56.068 51.204 56.788 50.808 57.7 50.568C58.612 50.328 59.548 50.172 60.508 50.1C61.492 50.028 62.332 49.992 63.028 49.992H70.156C70.996 49.992 71.74 49.968 72.388 49.92C73.06 49.848 73.624 49.812 74.08 49.812C74.824 49.812 75.256 49.992 75.376 50.352C75.4 50.448 75.412 50.544 75.412 50.64C75.436 50.712 75.448 50.808 75.448 50.928C75.448 51.408 75.34 51.96 75.124 52.584C74.908 53.184 74.668 53.772 74.404 54.348C74.164 54.9 73.972 55.356 73.828 55.716C73.804 55.836 73.732 55.92 73.612 55.968C73.516 56.016 73.42 56.04 73.324 56.04C73.204 56.04 73.096 56.016 73 55.968C72.928 55.92 72.904 55.764 72.928 55.5C72.976 55.212 73.036 54.888 73.108 54.528C73.18 54.168 73.216 53.856 73.216 53.592C73.216 52.824 72.868 52.236 72.172 51.828C71.476 51.396 70.672 51.18 69.76 51.18C69.088 51.18 68.536 51.24 68.104 51.36C67.696 51.456 67.348 51.708 67.06 52.116C66.316 53.148 65.56 54.48 64.792 56.112C64.024 57.744 63.292 59.388 62.596 61.044H70.588C70.66 61.044 70.612 61.188 70.444 61.476C70.3 61.764 70.108 62.064 69.868 62.376C69.652 62.664 69.46 62.808 69.292 62.808H61.84C61.576 63.456 61.24 64.296 60.832 65.328C60.448 66.336 60.064 67.416 59.68 68.568C59.296 69.72 58.972 70.812 58.708 71.844C58.468 72.852 58.348 73.68 58.348 74.328C58.348 74.688 58.396 74.952 58.492 75.12H53.848Z" fill="white"/>
<circle cx="64" cy="64" r="44.58" stroke="white" stroke-width="3"/>
</svg>
